# xmcd
#
# Track frame offsets: 
#        150
#        13543
#        24610
#        47910
#        58065
#        70240
#        82855
#        95430
#        109885
#        133905
#        151825
#        168888
#
# Disc length: 2601 seconds
#
# Revision: 2
# Processed by: cddbd v1.4PL0 Copyright (c) Steve Scherf et al.
# Submitted via: ExactAudioCopy v0.90b4
#
DISCID=960a270c
DTITLE=Various Artist - The Charly Blues Masterworks Sampler Vol 1
DYEAR=1992
DGENRE=Blues
TTITLE0=Howlin' Wolf - Moanin' At Midnight
TTITLE1=John Lee Hooker - This Is Hip
TTITLE2=Clarence "Gatemouth" Brown - Goin' Down Slow
TTITLE3=Guitar Junior - The Crawl
TTITLE4=Muddy Waters - Trouble No More
TTITLE5=Jimmy Rogers - I Can't Believe
TTITLE6=Elmore James - The Sky Is Crying
TTITLE7=Otis Rush - So Many Roads, So Many Trains
TTITLE8=Buddy Guy - Don't Know Which Way To Go
TTITLE9=Lightnin' Hopkins - Letter To My Backdoor Friend
TTITLE10=Walter "Wolfman" Washington - Sure Enough It's You
TTITLE11=John Mayall's Bluesbreakers - Ridin' On The L&N
EXTD=
EXTT0=
EXTT1=
EXTT2=
EXTT3=
EXTT4=
EXTT5=
EXTT6=
EXTT7=
EXTT8=
EXTT9=
EXTT10=
EXTT11=
PLAYORDER=
